<svg xmlns="http://www.w3.org/2000/svg" viewBox="0 0 14.53 20.25"><defs><style>.cls-1{fill:#0069d5;}</style></defs><title>幫助中心_關於我們</title><g id="line"><path class="cls-1" d="M7.28,20.25c-.78-1-1.52-2-2.22-2.95A40.46,40.46,0,0,1,.73,10.1,7.32,7.32,0,0,1,0,7,7.28,7.28,0,0,1,14.4,5.81a6.65,6.65,0,0,1-.52,4.12,36.68,36.68,0,0,1-4,6.73C9.09,17.85,8.2,19,7.28,20.25ZM6,8.46V8.37a1.31,1.31,0,0,0-.11-.12A3.6,3.6,0,0,1,4.72,6.12,2.59,2.59,0,0,1,9.78,5a3.24,3.24,0,0,1-1,3.06c-.09.1-.2.19-.35.34a5.47,5.47,0,0,1,3.24,2.42,5.69,5.69,0,0,0-.23-7.73A5.82,5.82,0,0,0,3,3.2a5.69,5.69,0,0,0-.16,7.66A5.39,5.39,0,0,1,6,8.46Zm.49.25c.63.4.37.82.22,1.23a9.41,9.41,0,0,1-.41,1.2,2,2,0,0,0,.35,2.57,5,5,0,0,1,.58.81c.47-.68.88-1.26,1.27-1.86a.58.58,0,0,0,0-.43c-.22-.7-.47-1.38-.69-2.08-.15-.47-.55-1,.09-1.44Z"/></g></svg>