<svg id="圖層_1" data-name="圖層 1" xmlns="http://www.w3.org/2000/svg" viewBox="0 0 30 30"><defs><style>.cls-1{fill:#ac4ef2;}.cls-2,.cls-3{fill:#fff;}.cls-3{stroke:#ac4ef2;stroke-miterlimit:10;stroke-width:0.25px;}</style></defs><circle class="cls-1" cx="15" cy="15" r="15"/><path class="cls-2" d="M7.11,7.34H21.8a1,1,0,0,1,1,1v1.9a0,0,0,0,1,0,0H6.11a0,0,0,0,1,0,0V8.34A1,1,0,0,1,7.11,7.34Z" transform="translate(-1.69 3.74) rotate(-13.92)"/><path class="cls-2" d="M7.59,11.73H24.28a0,0,0,0,1,0,0v5.09a1,1,0,0,1-1,1H8.59a1,1,0,0,1-1-1V11.73A0,0,0,0,1,7.59,11.73Z" transform="translate(-3.09 4.27) rotate(-13.92)"/><rect class="cls-3" x="5.44" y="12.95" width="17.05" height="10.69" rx="1"/><path class="cls-1" d="M7.37,17.48H8.63c.76,0,1.35.18,1.35.76a.72.72,0,0,1-.49.66v0a.73.73,0,0,1,.67.71c0,.63-.63.9-1.43.9H7.37ZM8.59,18.7c.4,0,.58-.14.58-.36S9,18,8.59,18H8.2v.69ZM8.66,20c.46,0,.69-.13.69-.41s-.23-.38-.69-.38H8.2V20Z"/><path class="cls-1" d="M11.45,17.48h1l1.15,3.05h-.88L12.23,19c-.1-.31-.2-.67-.29-1h0c-.08.33-.18.68-.28,1l-.49,1.54H10.3Zm-.39,1.79h1.76v.54H11.06Z"/><path class="cls-1" d="M13.94,17.48h.84l1,1.52.36.67h0a9.54,9.54,0,0,1-.1-1.11V17.48h.79v3.05H16L15,19l-.36-.67h0a10,10,0,0,1,.1,1.11v1.08h-.78Z"/><path class="cls-1" d="M17.67,17.48h.82v1.25h0l1.09-1.25h.91l-1.1,1.22,1.31,1.83h-.91l-.89-1.29-.43.48v.81h-.82Z"/></svg>