<svg xmlns="http://www.w3.org/2000/svg" viewBox="0 0 19.24 23.23"><defs><style>.cls-1{fill:#0069d5;}</style></defs><title>幫助中心</title><g id="line"><path class="cls-1" d="M9.53,16.57H6.16c-.08,0-.09,0-.09-.09,0-.52,0-1.05,0-1.57A.13.13,0,0,0,6,14.8a5.49,5.49,0,0,1-.67-.49,5,5,0,0,1-.41-.39,5.51,5.51,0,0,1-.78-1,6,6,0,0,1-.6-1.46,5.27,5.27,0,0,1-.16-.79,6.4,6.4,0,0,1-.06-.88,4.83,4.83,0,0,1,0-.76,5.74,5.74,0,0,1,.42-1.69,5.36,5.36,0,0,1,.52-1,5.44,5.44,0,0,1,.58-.78,5.74,5.74,0,0,1,.71-.68A6.49,6.49,0,0,1,6.86,4a6.09,6.09,0,0,1,1.51-.5l.72-.09c.27,0,.54,0,.81,0a3.56,3.56,0,0,1,.47,0,6.83,6.83,0,0,1,.81.17A6.61,6.61,0,0,1,12,4a6.52,6.52,0,0,1,1.09.62c.17.12.33.26.49.39s.21.19.31.29.25.26.37.4.24.3.35.46a6.15,6.15,0,0,1,.73,1.42,7,7,0,0,1,.28,1c0,.16,0,.33.07.5s0,.4,0,.6a6.53,6.53,0,0,1-.11,1.25,5.83,5.83,0,0,1-.4,1.37A5.87,5.87,0,0,1,14,14a5.39,5.39,0,0,1-1,.75.15.15,0,0,0-.07.13V16.5c0,.06,0,.07-.07.07Zm-1.8-2v.81a.57.57,0,0,0,.16.39.77.77,0,0,0,.39.2,5,5,0,0,0,1.32.18,4.37,4.37,0,0,0,.72-.06,4.12,4.12,0,0,0,.58-.15.6.6,0,0,0,.46-.58c0-.53,0-1.06,0-1.59a.1.1,0,0,1,.07-.11l.38-.2a3.79,3.79,0,0,0,1.07-.84,3.69,3.69,0,0,0,.57-.88,4.53,4.53,0,0,0,.38-1.7,4.15,4.15,0,0,0-.05-.93,4.66,4.66,0,0,0-.36-1.15,4.34,4.34,0,0,0-.76-1.12,5.8,5.8,0,0,0-.52-.47,4.35,4.35,0,0,0-1-.58,4.23,4.23,0,0,0-1.31-.3,4,4,0,0,0-1,0A4,4,0,0,0,7.51,6a4.27,4.27,0,0,0-.89.64,4.18,4.18,0,0,0-.86,1.14,4.28,4.28,0,0,0-.5,1.77,4.61,4.61,0,0,0,.08,1.17A3.85,3.85,0,0,0,5.83,12a3.68,3.68,0,0,0,1.3,1.3l.51.27a.14.14,0,0,1,.09.14Z"/><path class="cls-1" d="M9.43,18.13H5.84a.67.67,0,0,1,0-1.33H13a.67.67,0,1,1,0,1.34Z"/><path class="cls-1" d="M9.44,18.57H13a.67.67,0,1,1,0,1.33H5.84a.67.67,0,1,1,0-1.33Z"/><path class="cls-1" d="M9.44,21.52H7.37a.33.33,0,0,1-.29-.15,1,1,0,0,1,0-1,.34.34,0,0,1,.3-.16H11.5a.32.32,0,0,1,.29.14,1,1,0,0,1,0,1,.33.33,0,0,1-.29.15Z"/><path class="cls-1" d="M15.71,5.42A.59.59,0,0,1,15.17,5a.54.54,0,0,1,.12-.64l1-.94a.56.56,0,0,1,.84,0l.16.2a.55.55,0,0,1-.12.81l-1.12.79A.58.58,0,0,1,15.71,5.42Z"/><path class="cls-1" d="M3.36,5.57a.53.53,0,0,1-.3-.09L1.9,4.71a.56.56,0,0,1-.14-.8A2.09,2.09,0,0,1,2,3.62a.56.56,0,0,1,.78,0l1,.92a.56.56,0,0,1,.14.63A.6.6,0,0,1,3.36,5.57Z"/><path class="cls-1" d="M10.18.67c0,.41-.06.88-.09,1.35a.56.56,0,0,1-.53.49A.59.59,0,0,1,9,2.26a.8.8,0,0,1-.11-.4c0-.39-.06-.78-.1-1.16A.6.6,0,0,1,9.06.09a1.14,1.14,0,0,1,.85,0A.61.61,0,0,1,10.18.67Z"/><path class="cls-1" d="M2.51,11.67a.58.58,0,0,1-.4.56l-1.3.41a.56.56,0,0,1-.73-.39c0-.09,0-.18-.07-.27a.57.57,0,0,1,.51-.69c.44-.06.88-.14,1.32-.21a.56.56,0,0,1,.64.4A.63.63,0,0,1,2.51,11.67Z"/><path class="cls-1" d="M16.72,11.54a.6.6,0,0,1,.47-.61,1,1,0,0,1,.34,0l1.12.16a.66.66,0,0,1,.44.19.54.54,0,0,1,.13.49c0,.09,0,.17,0,.26a.56.56,0,0,1-.73.42l-1.34-.4A.54.54,0,0,1,16.72,11.54Z"/><path class="cls-1" d="M9.44,21.89h.71a.13.13,0,0,1,.13.09,1.76,1.76,0,0,1,.06.39,2.57,2.57,0,0,1,0,.68s0,.06,0,.08a.12.12,0,0,1-.14.1H8.73a.12.12,0,0,1-.14-.1,1.4,1.4,0,0,1-.06-.41,2.52,2.52,0,0,1,0-.67l0-.09a.1.1,0,0,1,.11-.07Z"/></g></svg>