<?xml version="1.0" encoding="utf-8"?>
<!-- Generator: Adobe Illustrator 24.1.3, SVG Export Plug-In . SVG Version: 6.00 Build 0)  -->
<svg version="1.1" id="圖層_1" xmlns="http://www.w3.org/2000/svg" xmlns:xlink="http://www.w3.org/1999/xlink" x="0px" y="0px"
	 viewBox="0 0 49 48.23" style="enable-background:new 0 0 49 48.23;" xml:space="preserve">
<style type="text/css">
	.st0{fill:#E11515;}
</style>
<g>
	<g>
		<path class="st0" d="M16.2,24.28c6.53,0,11.83-5.3,11.83-11.83c0-6.53-5.3-11.83-11.83-11.83S4.37,5.92,4.37,12.45
			C4.37,18.98,9.67,24.28,16.2,24.28z M12.07,17.13c0.11-0.39,0.22-0.77,0.33-1.16c0.14-0.45,0.26-0.5,0.68-0.28
			c0.7,0.36,1.45,0.57,2.23,0.67c0.5,0.06,1,0.01,1.46-0.2c0.87-0.38,1.01-1.39,0.27-2c-0.25-0.21-0.54-0.36-0.83-0.49
			c-0.76-0.33-1.56-0.59-2.28-1.02c-1.16-0.7-1.91-1.66-1.82-3.08c0.1-1.61,1.01-2.61,2.48-3.14c0.61-0.23,0.61-0.22,0.62-0.85
			c0-0.22,0-0.43,0-0.65c0.01-0.48,0.1-0.56,0.57-0.58c0.15,0,0.29,0,0.44,0c1.02,0,1.02,0,1.02,1.02c0,0.71,0,0.72,0.71,0.83
			c0.55,0.09,1.07,0.24,1.58,0.47c0.28,0.13,0.38,0.32,0.3,0.62c-0.13,0.44-0.24,0.88-0.39,1.31C19.29,9,19.17,9.06,18.77,8.87
			c-0.79-0.38-1.63-0.55-2.51-0.5c-0.24,0.01-0.45,0.04-0.67,0.14c-0.75,0.33-0.88,1.16-0.23,1.68c0.32,0.26,0.69,0.45,1.09,0.61
			c0.67,0.27,1.34,0.55,1.99,0.9c2.03,1.13,2.57,3.67,1.15,5.4c-0.52,0.63-1.18,1.05-1.98,1.26c-0.34,0.1-0.5,0.27-0.48,0.63
			c0.02,0.35,0,0.7,0,1.05c0,0.31-0.16,0.48-0.47,0.49c-0.37,0.01-0.75,0.01-1.13,0c-0.33-0.01-0.49-0.2-0.49-0.52
			c0-0.25,0-0.51-0.01-0.76c-0.01-0.56-0.02-0.59-0.57-0.68c-0.7-0.11-1.37-0.26-2.01-0.58C11.98,17.77,11.93,17.64,12.07,17.13z"/>
		<path class="st0" d="M42.73,25.27h-1.38l0,0c-0.91-2.79-2.69-5.27-5.07-7.19c0-0.09-0.02-0.19-0.04-0.27
			c-0.5-1.75,0.12-3.35,0.83-4.49c0.5-0.8-0.15-1.83-1.09-1.71c-2.1,0.26-3.55,1.04-4.55,1.91c-0.69,0.6-1.17,1.4-1.39,2.29
			c-1.51,6.25-7.14,10.9-13.84,10.9c-3.26,0-6.26-1.1-8.65-2.94c-0.83,1.8-1.28,3.77-1.28,5.83c0,1.12,0.14,2.2,0.39,3.25l0,0
			c0,0,0,0.02,0.01,0.05c0.26,1.09,0.67,2.13,1.17,3.12c0.68,1.46,1.65,3.16,3.01,4.54c1.95,2.01,2.28,4.49,2.33,5.57v0.46
			c0,0.02,0,0.04,0,0.06c0,0.01,0,0.01,0,0.01l0,0c0.04,0.53,0.48,0.95,1.02,0.95h6.19c0.56,0,1.02-0.45,1.02-1.02v-1.53
			c0.9,0.12,1.82,0.19,2.75,0.19c0.73,0,1.45-0.04,2.16-0.12v1.46c0,0.56,0.45,1.02,1.02,1.02h6.21c0.56,0,1.02-0.45,1.02-1.02
			v-1.53c0.01-0.51,0.19-2.54,2.1-4.27c0.07-0.06,0.14-0.12,0.21-0.18c0.02-0.02,0.04-0.03,0.06-0.05l0,0
			c2.13-1.9,3.71-4.27,4.52-6.91h1.3c1.04,0,1.88-0.84,1.88-1.88v-4.63C44.61,26.11,43.76,25.27,42.73,25.27z M34.98,25.6
			c-0.85,0-1.54-0.69-1.54-1.54c0-0.85,0.69-1.54,1.54-1.54c0.85,0,1.54,0.69,1.54,1.54C36.52,24.92,35.84,25.6,34.98,25.6z"/>
	</g>
</g>
</svg>
