<svg id="圖層_1" data-name="圖層 1" xmlns="http://www.w3.org/2000/svg" xmlns:xlink="http://www.w3.org/1999/xlink" viewBox="0 0 22.55 23"><defs>
<style>.cls-1{fill:url(#未命名漸層_77);}.cls-2{fill:url(#未命名漸層_77-2);}.cls-3{fill:url(#未命名漸層_77-3);}.cls-4{fill:url(#未命名漸層_77-4);}</style><linearGradient id="未命名漸層_77" x1="6.03" y1="12.06" x2="6.03" gradientUnits="userSpaceOnUse"><stop offset="0" stop-color="#0069d5"/><stop offset="1" stop-color="#0069d5"/></linearGradient><linearGradient id="未命名漸層_77-2" x1="16.52" y1="12.06" x2="16.52" xlink:href="#未命名漸層_77"/><linearGradient id="未命名漸層_77-3" x1="6.03" y1="23" x2="6.03" y2="10.94" xlink:href="#未命名漸層_77"/><linearGradient id="未命名漸層_77-4" x1="16.52" y1="23" x2="16.52" y2="10.94" xlink:href="#未命名漸層_77"/></defs><title>未命名-1</title><path class="cls-1" d="M10.06,2v8.06H2V2h8.06m0-2H2A2,2,0,0,0,0,2v8.06a2,2,0,0,0,2,2h8.06a2,2,0,0,0,2-2V2a2,2,0,0,0-2-2Z"/><path class="cls-2" d="M20.55,2v8.06H12.49V2h8.06m0-2H12.49a2,2,0,0,0-2,2v8.06a2,2,0,0,0,2,2h8.06a2,2,0,0,0,2-2V2a2,2,0,0,0-2-2Z"/><path class="cls-3" d="M10.06,12.94V21H2V12.94h8.06m0-2H2a2,2,0,0,0-2,2V21a2,2,0,0,0,2,2h8.06a2,2,0,0,0,2-2V12.94a2,2,0,0,0-2-2Z"/><path class="cls-4" d="M20.55,12.94V21H12.49V12.94h8.06m0-2H12.49a2,2,0,0,0-2,2V21a2,2,0,0,0,2,2h8.06a2,2,0,0,0,2-2V12.94a2,2,0,0,0-2-2Z"/></svg>