<svg xmlns="http://www.w3.org/2000/svg" viewBox="0 0 17.45 15.67"><defs><style>.cls-1{fill:#0069d5;}</style></defs><title>幫助中心</title><g id="line"><path class="cls-1" d="M8.72,0C3.91,0,0,3.32,0,7.43a6.9,6.9,0,0,0,2.53,5.22C2.35,13.77,1.84,15.31.4,15.6c0,0,4,.47,5.93-1h0a9.82,9.82,0,0,0,2.38.29c4.82,0,8.73-3.32,8.73-7.42S13.54,0,8.72,0ZM10,12.11H7.73V9.64H10Zm1.66-5.5a2.2,2.2,0,0,1-.4.73,7,7,0,0,1-.8.75,2.89,2.89,0,0,0-.53.51,1,1,0,0,0-.16.46h-2a3.74,3.74,0,0,1,.13-1.18,2.15,2.15,0,0,1,.52-.76A4.49,4.49,0,0,0,9.2,6.2a1.54,1.54,0,0,0,.15-.7,1,1,0,0,0-.2-.65.61.61,0,0,0-.48-.22c-.58,0-.86.52-.87,1.55L5.63,5.91q.5-3.17,3.23-3.17A2.89,2.89,0,0,1,11,3.57a2.85,2.85,0,0,1,.79,2.05A2.86,2.86,0,0,1,11.66,6.61Z"/></g></svg>