<svg xmlns="http://www.w3.org/2000/svg" viewBox="0 0 30 28.08"><defs><style>.cls-1{fill:#fff;}</style></defs><title>home</title><g id="menu"><path class="cls-1" d="M16.63,0A13.37,13.37,0,0,0,5.69,5.7,6.48,6.48,0,0,1,7.15,7.05a11.4,11.4,0,0,1,8.11-5l1.37,2.32L18,2.05A11.4,11.4,0,0,1,28,12l-2.32,1.38L28,14.74A11.39,11.39,0,0,1,22.72,23a3.32,3.32,0,0,1,.3,1.26,3.28,3.28,0,0,1-.08.9A13.37,13.37,0,0,0,16.63,0ZM20,22c-3.08-2.48-3.94-1.26-5.34.13-1,1-3.44-1.06-5.58-3.19S5,14.36,5.93,13.38C7.32,12,8.54,11.12,6.06,8S1.94,7.32.58,8.68C-1,10.24.5,16.07,6.26,21.82S17.84,29.06,19.4,27.5C20.76,26.14,23.13,24.49,20,22Zm-9.38-6.56c0-2.74,3.21-3.23,3.21-4.3a.74.74,0,0,0-.8-.73,1.42,1.42,0,0,0-1.1.79l-1.35-.91a2.85,2.85,0,0,1,2.61-1.6A2.31,2.31,0,0,1,15.76,11c0,2.31-3,2.76-3,3.71h3.16v1.56H10.74A4.71,4.71,0,0,1,10.66,15.46Zm6-2.1L19.5,8.84h2.22V13h.88v1.5h-.88v1.8H19.93v-1.8H16.64v-1.1Zm3.29-.4V11.3a6.76,6.76,0,0,1,.06-.83h0a4,4,0,0,1-.37.77l-1.12,1.7v0Z"/></g></svg>