<?xml version="1.0" encoding="utf-8"?>
<!-- Generator: Adobe Illustrator 24.1.3, SVG Export Plug-In . SVG Version: 6.00 Build 0)  -->
<svg version="1.1" id="圖層_1" xmlns="http://www.w3.org/2000/svg" xmlns:xlink="http://www.w3.org/1999/xlink" x="0px" y="0px"
	 viewBox="0 0 13 12.14" style="enable-background:new 0 0 13 12.14;" xml:space="preserve">
<style type="text/css">
	.st0{fill:#E11515;}
	.st1{fill:#999999;}
</style>
<g>
	<path class="st0" d="M6.5,7C6.37,7,6.24,6.95,6.15,6.85l-6-6c-0.2-0.2-0.2-0.51,0-0.71s0.51-0.2,0.71,0L6.5,5.79l5.65-5.65
		c0.2-0.2,0.51-0.2,0.71,0s0.2,0.51,0,0.71l-6,6C6.76,6.95,6.63,7,6.5,7z"/>
	<path class="st0" d="M6.5,12.14c-0.13,0-0.26-0.05-0.35-0.15l-6-6c-0.2-0.2-0.2-0.51,0-0.71s0.51-0.2,0.71,0l5.65,5.65l5.65-5.65
		c0.2-0.2,0.51-0.2,0.71,0s0.2,0.51,0,0.71l-6,6C6.76,12.09,6.63,12.14,6.5,12.14z"/>
</g>
</svg>
