<?xml version="1.0" encoding="utf-8"?>
<!-- Generator: Adobe Illustrator 23.0.3, SVG Export Plug-In . SVG Version: 6.00 Build 0)  -->
<svg version="1.1" id="圖層_1" xmlns="http://www.w3.org/2000/svg" xmlns:xlink="http://www.w3.org/1999/xlink" x="0px" y="0px"
	 viewBox="0 0 30 30" style="enable-background:new 0 0 30 30;" xml:space="preserve">
<style type="text/css">
	.st0{fill:#26A17B;}
	.st1{fill:#FFFFFF;}
</style>
<circle class="st0" cx="15" cy="15" r="15"/>
<g id="圖層_2">
	<g>
		<polygon class="st1" points="16.8,7.3 13.1,7.3 8,7.3 8,10.8 13.1,10.8 13.1,15.7 16.8,15.7 16.8,10.8 21.9,10.8 21.9,7.3 		"/>
		<rect x="13.1" y="16.3" class="st1" width="3.7" height="7.7"/>
	</g>
</g>
<g id="圖層_3">
	<path class="st1" d="M15,12.9c-5,0-9.1,0.9-9.1,2s4.1,2,9.1,2s9.1-0.9,9.1-2S20,12.9,15,12.9z M15,16.3c-4.5,0-8.2-0.7-8.2-1.6
		s3.7-1.6,8.2-1.6c4.5,0,8.2,0.7,8.2,1.6S19.5,16.3,15,16.3z"/>
</g>
</svg>
