<?xml version="1.0" encoding="utf-8"?>
<!-- Generator: Adobe Illustrator 23.0.3, SVG Export Plug-In . SVG Version: 6.00 Build 0)  -->
<svg version="1.1" id="venus" xmlns="http://www.w3.org/2000/svg" xmlns:xlink="http://www.w3.org/1999/xlink" x="0px" y="0px"
	 viewBox="0 0 500 500" style="enable-background:new 0 0 500 500;" xml:space="preserve">
<style type="text/css">
	.st0{fill:#B2A49B;}
	.st1{fill:#FFFFFF;}
</style>
<circle class="st0" cx="250.13" cy="250" r="249.87"/>
<g>
	<rect x="188.27" y="393.16" class="st1" width="124.01" height="12.63"/>
	<polygon class="st1" points="242.71,366.06 202.98,366.06 202.98,384.48 297.56,384.48 297.56,366.06 257.83,366.06 257.83,137.1 
		373.8,137.1 373.8,121.98 126.74,121.98 126.74,137.1 242.71,137.1 	"/>
	<polygon class="st1" points="153.53,176.67 183.68,249.37 198.4,249.37 153.53,146.99 108.65,249.37 122.88,249.37 	"/>
	<path class="st1" d="M206.6,259.18H100.45c0,0,20.27,32.81,54.77,32.81S206.6,259.18,206.6,259.18z"/>
	<polygon class="st1" points="301.98,249.37 316.22,249.37 346.86,176.67 377.02,249.37 391.73,249.37 346.86,146.99 	"/>
	<path class="st1" d="M293.78,259.18c0,0,20.27,32.81,54.77,32.81s51.39-32.81,51.39-32.81H293.78z"/>
</g>
</svg>
