<?xml version="1.0" encoding="utf-8"?>
<!-- Generator: Adobe Illustrator 24.1.3, SVG Export Plug-In . SVG Version: 6.00 Build 0)  -->
<svg version="1.1" id="圖層_1" xmlns="http://www.w3.org/2000/svg" xmlns:xlink="http://www.w3.org/1999/xlink" x="0px" y="0px"
	 viewBox="0 0 49 48.23" style="enable-background:new 0 0 49 48.23;" xml:space="preserve">
<style type="text/css">
	.st0{fill:#E11515;}
</style>
<path class="st0" d="M47.46,18.92c0.69-0.22,1.22-0.56,1.54-1.22c0-3.06,0-6.13,0-9.19c-0.3-0.82-0.73-1.55-1.59-1.91
	c-0.29-0.12-0.6-0.2-0.9-0.29c-5.28,0-17.94,0-25.42,0c-1.13,0-2.25,0-3.38,0c-5.08,0-10.15,0-15.23,0
	c-0.33,0.11-0.67,0.2-0.98,0.35C0.62,7.09,0.22,7.89,0,8.8c0,2.93,0,5.87,0,8.8c0.29,0.77,0.9,1.09,1.65,1.34
	c2.4,0.79,3.84,2.84,3.81,5.3c-0.03,2.33-1.56,4.38-3.89,5.1C0.81,29.59,0.25,29.95,0,30.72c0,2.93,0,5.87,0,8.81
	c0.19,0.43,0.34,0.88,0.58,1.28c0.39,0.63,1.04,0.9,1.72,1.11c5.67,0,11.34,0,17,0c0.6,0,1.2,0,1.8,0c6.99,0,19.94,0,25.7,0
	c0.41-0.22,0.92-0.35,1.22-0.67c0.41-0.43,0.66-1.01,0.98-1.53c0-3.03,0-6.06,0-9.09c-0.27-0.67-0.77-1.03-1.46-1.24
	c-2.43-0.75-3.98-2.82-3.98-5.25C43.56,21.75,45.08,19.69,47.46,18.92z M26.29,32.21v0.39c0,1.03-0.84,1.87-1.87,1.87
	c-1.03,0-1.87-0.84-1.87-1.87v-0.18c-0.86-0.15-1.65-0.47-2.64-1.12c-0.86-0.57-1.11-1.72-0.54-2.59c0.57-0.86,1.72-1.11,2.59-0.54
	c0.91,0.6,1.21,0.64,2.45,0.63c1.2-0.01,1.68-0.95,1.77-1.51c0.08-0.5-0.01-1.16-0.94-1.49c-1.42-0.5-3.1-1.14-4.27-2.06
	c-2.57-2.02-1.78-6.61,1.58-7.83v-0.27c0-1.03,0.84-1.87,1.87-1.87c1.03,0,1.87,0.84,1.87,1.87v0.15c1.24,0.37,2.1,1.14,2.1,1.14
	c0.75,0.7,0.8,1.88,0.11,2.63c-0.7,0.76-1.87,0.81-2.64,0.12c-0.48-0.36-1.22-0.51-1.99-0.28c-0.5,0.15-0.64,0.67-0.66,0.82
	c-0.06,0.32,0.03,0.54,0.07,0.58c0.76,0.6,2.28,1.15,3.21,1.48C31.41,24.02,30.81,30.57,26.29,32.21z"/>
</svg>
