<?xml version="1.0" encoding="utf-8"?>
<!-- Generator: Adobe Illustrator 24.1.3, SVG Export Plug-In . SVG Version: 6.00 Build 0)  -->
<svg version="1.1" id="圖層_1" xmlns="http://www.w3.org/2000/svg" xmlns:xlink="http://www.w3.org/1999/xlink" x="0px" y="0px"
	 viewBox="0 0 49 48.23" style="enable-background:new 0 0 49 48.23;" xml:space="preserve">
<style type="text/css">
	.st0{fill:#E11515;}
</style>
<g>
	<path class="st0" d="M27.96,1.96c-6.82,0-12.37,5.55-12.37,12.37s5.55,12.37,12.37,12.37c6.82,0,12.37-5.55,12.37-12.37
		S34.78,1.96,27.96,1.96z M29.26,19.96v0.27c0,0.72-0.58,1.3-1.3,1.3c-0.72,0-1.3-0.58-1.3-1.3v-0.12c-0.6-0.1-1.14-0.33-1.83-0.78
		c-0.6-0.39-0.77-1.2-0.38-1.8c0.39-0.6,1.2-0.77,1.8-0.38c0.63,0.41,0.84,0.45,1.7,0.44c0.83-0.01,1.17-0.66,1.23-1.05
		c0.06-0.35-0.01-0.81-0.65-1.04c-0.99-0.35-2.15-0.79-2.97-1.43c-1.79-1.4-1.24-4.59,1.09-5.44V8.45c0-0.72,0.58-1.3,1.3-1.3
		c0.72,0,1.3,0.58,1.3,1.3v0.11c0.86,0.25,1.46,0.79,1.46,0.79c0.52,0.48,0.56,1.3,0.08,1.83c-0.48,0.53-1.3,0.56-1.83,0.08
		c-0.33-0.25-0.85-0.35-1.38-0.19c-0.35,0.1-0.44,0.46-0.46,0.57c-0.04,0.22,0.02,0.37,0.05,0.4c0.53,0.41,1.58,0.8,2.23,1.03
		C32.82,14.28,32.41,18.83,29.26,19.96L29.26,19.96z"/>
	<path class="st0" d="M39.86,27.24l-12.6,3.71c0.4,0.98,0.61,2.04,0.61,3.14v0.46c0,3.23-3.34,5.38-6.28,4.06l-6.61-2.97
		c-0.65-0.29-0.94-1.06-0.65-1.72c0.29-0.65,1.06-0.95,1.72-0.65l6.61,2.97c1.22,0.55,2.62-0.33,2.62-1.69v-0.46
		c0-2.23-1.35-4.2-3.35-5.1l-5.71-2.57c-2.22-1-4.77-0.99-6.97,0.03l-6.14,2.79c-0.46,0.21-0.76,0.67-0.76,1.18v13.81
		c0,0.98,0.93,1.56,1.76,1.25l8.64-3.29l10.28,3.6c2.34,0.82,4.9,0.57,7.05-0.7l13.98-8.23c1.6-0.95,2.59-2.69,2.59-4.55
		C46.65,28.79,43.27,26.24,39.86,27.24L39.86,27.24z"/>
</g>
</svg>
